<svg xmlns="http://www.w3.org/2000/svg" width="256" height="256"><g stroke-width="0" stroke-miterlimit="10" fill="red"><path d="M53.42 83.487l74.437-36.193 74.436 36.193-74.436 36.164z"/><path d="M127.857 119.651v88.768l74.436-36.193v-88.74z"/><path d="M127.857 125.271a5.62 5.62 0 01-2.456-.564L50.964 88.533a5.619 5.619 0 010-10.11L125.4 42.247a5.603 5.603 0 014.912 0l74.434 36.176a5.621 5.621 0 010 10.11l-74.434 36.174a5.62 5.62 0 01-2.456.564zM66.278 83.478l61.579 29.924 61.578-29.924-61.578-29.926-61.579 29.926z"/><path d="M127.857 214.03a5.62 5.62 0 01-2.456-.564L50.964 177.29a5.62 5.62 0 01-3.164-5.055V83.478c0-1.936.997-3.737 2.638-4.763a5.633 5.633 0 015.438-.292l71.98 34.979 71.979-34.979a5.619 5.619 0 018.076 5.055v88.757a5.625 5.625 0 01-3.164 5.055l-74.434 36.176a5.62 5.62 0 01-2.456.565zM59.04 168.718l68.817 33.444 68.814-33.444V92.459l-66.358 32.248a5.603 5.603 0 01-4.912 0L59.04 92.459v76.258z"/><path d="M127.857 214.03a5.622 5.622 0 01-5.62-5.62v-88.759c0-3.102 2.517-5.62 5.62-5.62s5.62 2.518 5.62 5.62v88.76a5.622 5.622 0 01-5.62 5.62zM239.51 176.017a5.622 5.622 0 01-5.62-5.62v-19.94c0-3.102 2.517-5.62 5.62-5.62s5.62 2.518 5.62 5.62v19.94a5.62 5.62 0 01-5.62 5.62zM239.51 130.147a5.622 5.622 0 01-5.62-5.62V64.806l-106.033-51.53L18.66 66.343a5.622 5.622 0 01-7.511-2.6 5.62 5.62 0 012.6-7.51L125.4 1.97a5.603 5.603 0 014.912 0l111.652 54.262a5.621 5.621 0 013.164 5.055v63.239a5.618 5.618 0 01-5.62 5.62zM16.204 109.78a5.622 5.622 0 01-5.62-5.62V84.22c0-3.102 2.518-5.62 5.62-5.62s5.62 2.518 5.62 5.62v19.94a5.62 5.62 0 01-5.62 5.62z"/><path d="M127.857 254.307a5.62 5.62 0 01-2.456-.565L13.748 199.478a5.62 5.62 0 01-3.164-5.055V130.09c0-3.103 2.518-5.62 5.62-5.62s5.62 2.517 5.62 5.62v60.816l106.033 51.53 109.196-53.07a5.626 5.626 0 017.511 2.6 5.624 5.624 0 01-2.599 7.51l-111.652 54.265a5.62 5.62 0 01-2.456.565z"/></g></svg>