<svg xmlns="http://www.w3.org/2000/svg" xmlns:xlink="http://www.w3.org/1999/xlink" version="1.1" width="256" height="256" viewBox="0 0 256 256" xml:space="preserve">

<defs>
</defs>
<g style="stroke: none; stroke-width: 0; stroke-dasharray: none; stroke-linecap: butt; stroke-linejoin: miter; stroke-miterlimit: 10; fill: none; fill-rule: nonzero; opacity: 1;" transform="translate(1.4065934065934016 1.4065934065934016) scale(2.81 2.81)" >
	<polygon points="18.51,29.21 45,16.33 71.49,29.21 45,42.08 " style="stroke: none; stroke-width: 1; stroke-dasharray: none; stroke-linecap: butt; stroke-linejoin: miter; stroke-miterlimit: 10; fill: rgb(255,0,0); fill-rule: nonzero; opacity: 1;" transform="  matrix(1 0 0 1 0 0) "/>
	<polygon points="45,42.08 45,73.67 71.49,60.79 71.49,29.21 " style="stroke: none; stroke-width: 1; stroke-dasharray: none; stroke-linecap: butt; stroke-linejoin: miter; stroke-miterlimit: 10; fill: rgb(255,0,0); fill-rule: nonzero; opacity: 1;" transform="  matrix(1 0 0 1 0 0) "/>
	<path d="M 45 44.08 c -0.299 0 -0.598 -0.067 -0.874 -0.201 l -26.49 -12.873 c -0.689 -0.334 -1.126 -1.033 -1.126 -1.799 s 0.437 -1.464 1.126 -1.799 l 26.49 -12.874 c 0.552 -0.269 1.196 -0.269 1.748 0 l 26.489 12.874 c 0.688 0.334 1.126 1.033 1.126 1.799 s -0.438 1.464 -1.126 1.799 L 45.874 43.879 C 45.598 44.013 45.299 44.08 45 44.08 z M 23.086 29.207 L 45 39.856 l 21.914 -10.649 L 45 18.557 L 23.086 29.207 z" style="stroke: none; stroke-width: 1; stroke-dasharray: none; stroke-linecap: butt; stroke-linejoin: miter; stroke-miterlimit: 10; fill: rgb(255,0,0); fill-rule: nonzero; opacity: 1;" transform=" matrix(1 0 0 1 0 0) " stroke-linecap="round" />
	<path d="M 45 75.667 c -0.299 0 -0.598 -0.067 -0.874 -0.201 l -26.49 -12.874 c -0.689 -0.335 -1.126 -1.033 -1.126 -1.799 V 29.207 c 0 -0.689 0.355 -1.33 0.939 -1.695 c 0.585 -0.365 1.315 -0.404 1.935 -0.104 L 45 39.856 l 25.615 -12.448 c 0.618 -0.301 1.35 -0.262 1.936 0.104 c 0.584 0.366 0.938 1.006 0.938 1.695 v 31.586 c 0 0.766 -0.438 1.464 -1.126 1.799 L 45.874 75.466 C 45.598 75.6 45.299 75.667 45 75.667 z M 20.51 59.541 L 45 71.443 l 24.489 -11.902 V 32.403 L 45.874 43.879 c -0.552 0.269 -1.196 0.269 -1.748 0 L 20.51 32.403 V 59.541 z" style="stroke: none; stroke-width: 1; stroke-dasharray: none; stroke-linecap: butt; stroke-linejoin: miter; stroke-miterlimit: 10; fill: rgb(255,0,0); fill-rule: nonzero; opacity: 1;" transform=" matrix(1 0 0 1 0 0) " stroke-linecap="round" />
	<path d="M 45 75.667 c -1.104 0 -2 -0.896 -2 -2 V 42.08 c 0 -1.104 0.896 -2 2 -2 s 2 0.896 2 2 v 31.587 C 47 74.771 46.104 75.667 45 75.667 z" style="stroke: none; stroke-width: 1; stroke-dasharray: none; stroke-linecap: butt; stroke-linejoin: miter; stroke-miterlimit: 10; fill: rgb(255,0,0); fill-rule: nonzero; opacity: 1;" transform=" matrix(1 0 0 1 0 0) " stroke-linecap="round" />
	<path d="M 84.734 62.139 c -1.104 0 -2 -0.896 -2 -2 v -7.096 c 0 -1.104 0.896 -2 2 -2 s 2 0.896 2 2 v 7.096 C 86.734 61.243 85.839 62.139 84.734 62.139 z" style="stroke: none; stroke-width: 1; stroke-dasharray: none; stroke-linecap: butt; stroke-linejoin: miter; stroke-miterlimit: 10; fill: rgb(255,0,0); fill-rule: nonzero; opacity: 1;" transform=" matrix(1 0 0 1 0 0) " stroke-linecap="round" />
	<path d="M 84.734 45.815 c -1.104 0 -2 -0.896 -2 -2 V 22.562 L 45 4.224 L 6.14 23.109 c -0.992 0.482 -2.19 0.069 -2.673 -0.925 c -0.483 -0.993 -0.069 -2.19 0.925 -2.673 l 39.734 -19.31 c 0.552 -0.269 1.196 -0.269 1.748 0 l 39.734 19.31 c 0.688 0.334 1.126 1.033 1.126 1.799 v 22.505 C 86.734 44.92 85.839 45.815 84.734 45.815 z" style="stroke: none; stroke-width: 1; stroke-dasharray: none; stroke-linecap: butt; stroke-linejoin: miter; stroke-miterlimit: 10; fill: rgb(255,0,0); fill-rule: nonzero; opacity: 1;" transform=" matrix(1 0 0 1 0 0) " stroke-linecap="round" />
	<path d="M 5.266 38.567 c -1.104 0 -2 -0.896 -2 -2 v -7.096 c 0 -1.104 0.896 -2 2 -2 s 2 0.896 2 2 v 7.096 C 7.266 37.672 6.37 38.567 5.266 38.567 z" style="stroke: none; stroke-width: 1; stroke-dasharray: none; stroke-linecap: butt; stroke-linejoin: miter; stroke-miterlimit: 10; fill: rgb(255,0,0); fill-rule: nonzero; opacity: 1;" transform=" matrix(1 0 0 1 0 0) " stroke-linecap="round" />
	<path d="M 45 90 c -0.299 0 -0.598 -0.067 -0.874 -0.201 L 4.392 70.488 c -0.689 -0.335 -1.126 -1.033 -1.126 -1.799 V 45.795 c 0 -1.104 0.896 -2 2 -2 s 2 0.896 2 2 v 21.643 L 45 85.776 l 38.86 -18.886 c 0.99 -0.481 2.19 -0.069 2.673 0.925 c 0.482 0.993 0.068 2.19 -0.925 2.673 L 45.874 89.799 C 45.598 89.933 45.299 90 45 90 z" style="stroke: none; stroke-width: 1; stroke-dasharray: none; stroke-linecap: butt; stroke-linejoin: miter; stroke-miterlimit: 10; fill: rgb(255,0,0); fill-rule: nonzero; opacity: 1;" transform=" matrix(1 0 0 1 0 0) " stroke-linecap="round" />
</g>
</svg>