<svg width="16" height="16" xmlns="http://www.w3.org/2000/svg" viewBox="0 0 204.481 204.481"><style>:root{color:#fff}@media (prefers-color-scheme:light){:root{color:#000}}</style><path d="M162.116 38.31a7.43 7.43 0 00.454-.67c.033-.055.068-.109.1-.164a7.72 7.72 0 00.419-.857c.014-.034.024-.069.038-.104a7.492 7.492 0 00.314-1.008c.068-.288.124-.581.157-.881l.008-.052a7.48 7.48 0 00.043-.796V7.5a7.5 7.5 0 00-7.5-7.5H48.332a7.5 7.5 0 00-7.5 7.5v26.279c0 .269.016.534.043.796l.008.052c.034.3.089.593.157.881.016.069.035.138.053.207.073.273.159.541.261.801.013.034.024.069.038.104.121.296.262.581.419.857.032.056.067.109.1.164.14.232.291.455.454.67.027.035.047.074.074.109l50.255 63.821-50.255 63.821c-.028.035-.047.074-.074.109a7.43 7.43 0 00-.454.67c-.033.055-.068.109-.1.164a7.72 7.72 0 00-.419.857c-.014.034-.024.069-.038.104a7.492 7.492 0 00-.314 1.008 7.308 7.308 0 00-.157.881l-.008.052a7.48 7.48 0 00-.043.796v26.279a7.5 7.5 0 007.5 7.5h107.817a7.5 7.5 0 007.5-7.5v-26.279c0-.269-.016-.534-.043-.796l-.008-.052a7.51 7.51 0 00-.157-.881c-.016-.069-.035-.138-.053-.207a7.492 7.492 0 00-.261-.801c-.013-.034-.024-.069-.038-.104a7.383 7.383 0 00-.419-.857c-.032-.056-.067-.109-.1-.164a7.646 7.646 0 00-.454-.67c-.027-.035-.047-.074-.074-.109l-50.255-63.821 50.255-63.821c.028-.035.047-.074.074-.11zM148.649 15v11.279H55.832V15h92.817zM55.832 189.481v-11.279h92.817v11.279H55.832zm84.866-26.279H63.784l38.457-48.838 38.457 48.838zm-38.457-73.084L63.784 41.279h76.914l-38.457 48.839z" fill="currentColor"/></svg>