<svg xmlns="http://www.w3.org/2000/svg" width="256" height="256"><g stroke-width="0" stroke-miterlimit="10" fill="red"><path d="M241.454 12.099H14.26c-7.099 0-12.853 5.755-12.853 12.853v45.842c0 7.098 5.754 12.853 12.853 12.853h227.19c7.099 0 12.854-5.755 12.854-12.853V24.952c.003-7.098-5.752-12.853-12.85-12.853zM130.852 64.033H28.287c-2.33 0-4.215-1.885-4.215-4.215s1.886-4.215 4.215-4.215h102.565a4.215 4.215 0 110 8.43zm0-23.885H28.287c-2.33 0-4.215-1.885-4.215-4.215s1.886-4.215 4.215-4.215h102.565a4.215 4.215 0 110 8.43zm80.92 23.38c-8.644 0-15.652-7.009-15.652-15.652s7.008-15.652 15.652-15.652 15.651 7.008 15.651 15.652-7.005 15.651-15.651 15.651zM241.454 92.08H14.26c-7.099 0-12.853 5.755-12.853 12.855v45.843c0 7.098 5.754 12.853 12.853 12.853h227.19c7.099 0 12.854-5.755 12.854-12.853v-45.843c.003-7.1-5.752-12.855-12.85-12.855zm-110.602 51.934H28.287a4.215 4.215 0 110-8.43h102.565a4.215 4.215 0 110 8.43zm0-23.885H28.287c-2.33 0-4.215-1.885-4.215-4.215s1.886-4.215 4.215-4.215h102.565a4.215 4.215 0 110 8.43zm80.92 23.38c-8.644 0-15.652-7.009-15.652-15.652 0-8.644 7.008-15.652 15.652-15.652s15.651 7.008 15.651 15.652c.003 8.643-7.005 15.651-15.651 15.651zM241.454 172.064H14.26c-7.099 0-12.853 5.754-12.853 12.852v45.843c0 7.098 5.754 12.856 12.853 12.856h227.19c7.099 0 12.854-5.755 12.854-12.856v-45.843c.003-7.098-5.752-12.852-12.85-12.852zm-110.602 51.931H28.287a4.215 4.215 0 110-8.43h102.565a4.215 4.215 0 110 8.43zm0-23.882H28.287a4.215 4.215 0 110-8.43h102.565a4.215 4.215 0 110 8.43zm80.92 23.38c-8.644 0-15.652-7.009-15.652-15.653 0-8.643 7.008-15.651 15.652-15.651s15.651 7.008 15.651 15.651c.003 8.644-7.005 15.652-15.651 15.652z"/></g></svg>