<svg xmlns="http://www.w3.org/2000/svg" xmlns:xlink="http://www.w3.org/1999/xlink" version="1.1" width="256" height="256" viewBox="0 0 256 256" xml:space="preserve">

<defs>
</defs>
<g style="stroke: none; stroke-width: 0; stroke-dasharray: none; stroke-linecap: butt; stroke-linejoin: miter; stroke-miterlimit: 10; fill: none; fill-rule: nonzero; opacity: 1;" transform="translate(1.4065934065934016 1.4065934065934016) scale(2.81 2.81)" >
	<path d="M 85.426 3.805 H 4.574 C 2.048 3.805 0 5.853 0 8.379 v 16.314 c 0 2.526 2.048 4.574 4.574 4.574 h 80.851 c 2.526 0 4.574 -2.048 4.574 -4.574 V 8.379 C 90 5.853 87.952 3.805 85.426 3.805 z M 46.066 22.287 h -36.5 c -0.829 0 -1.5 -0.671 -1.5 -1.5 s 0.671 -1.5 1.5 -1.5 h 36.5 c 0.828 0 1.5 0.671 1.5 1.5 S 46.895 22.287 46.066 22.287 z M 46.066 13.787 h -36.5 c -0.829 0 -1.5 -0.671 -1.5 -1.5 s 0.671 -1.5 1.5 -1.5 h 36.5 c 0.828 0 1.5 0.671 1.5 1.5 S 46.895 13.787 46.066 13.787 z M 74.863 22.107 c -3.076 0 -5.57 -2.494 -5.57 -5.57 s 2.494 -5.57 5.57 -5.57 s 5.57 2.494 5.57 5.57 S 77.94 22.107 74.863 22.107 z" style="stroke: none; stroke-width: 1; stroke-dasharray: none; stroke-linecap: butt; stroke-linejoin: miter; stroke-miterlimit: 10; fill: rgb(0,255,0); fill-rule: nonzero; opacity: 1;" transform=" matrix(1 0 0 1 0 0) " stroke-linecap="round" />
	<path d="M 85.426 32.268 H 4.574 C 2.048 32.268 0 34.316 0 36.843 v 16.314 c 0 2.526 2.048 4.574 4.574 4.574 h 80.851 c 2.526 0 4.574 -2.048 4.574 -4.574 V 36.843 C 90 34.316 87.952 32.268 85.426 32.268 z M 46.066 50.75 h -36.5 c -0.829 0 -1.5 -0.672 -1.5 -1.5 s 0.671 -1.5 1.5 -1.5 h 36.5 c 0.828 0 1.5 0.672 1.5 1.5 S 46.895 50.75 46.066 50.75 z M 46.066 42.25 h -36.5 c -0.829 0 -1.5 -0.671 -1.5 -1.5 s 0.671 -1.5 1.5 -1.5 h 36.5 c 0.828 0 1.5 0.671 1.5 1.5 S 46.895 42.25 46.066 42.25 z M 74.863 50.57 c -3.076 0 -5.57 -2.494 -5.57 -5.57 c 0 -3.076 2.494 -5.57 5.57 -5.57 s 5.57 2.494 5.57 5.57 C 80.434 48.076 77.94 50.57 74.863 50.57 z" style="stroke: none; stroke-width: 1; stroke-dasharray: none; stroke-linecap: butt; stroke-linejoin: miter; stroke-miterlimit: 10; fill: rgb(0,255,0); fill-rule: nonzero; opacity: 1;" transform=" matrix(1 0 0 1 0 0) " stroke-linecap="round" />
	<path d="M 85.426 60.732 H 4.574 C 2.048 60.732 0 62.78 0 65.306 v 16.314 c 0 2.526 2.048 4.575 4.574 4.575 h 80.851 c 2.526 0 4.574 -2.048 4.574 -4.575 V 65.306 C 90 62.78 87.952 60.732 85.426 60.732 z M 46.066 79.213 h -36.5 c -0.829 0 -1.5 -0.672 -1.5 -1.5 s 0.671 -1.5 1.5 -1.5 h 36.5 c 0.828 0 1.5 0.672 1.5 1.5 S 46.895 79.213 46.066 79.213 z M 46.066 70.714 h -36.5 c -0.829 0 -1.5 -0.672 -1.5 -1.5 s 0.671 -1.5 1.5 -1.5 h 36.5 c 0.828 0 1.5 0.672 1.5 1.5 S 46.895 70.714 46.066 70.714 z M 74.863 79.034 c -3.076 0 -5.57 -2.494 -5.57 -5.57 c 0 -3.076 2.494 -5.57 5.57 -5.57 s 5.57 2.494 5.57 5.57 C 80.434 76.54 77.94 79.034 74.863 79.034 z" style="stroke: none; stroke-width: 1; stroke-dasharray: none; stroke-linecap: butt; stroke-linejoin: miter; stroke-miterlimit: 10; fill: rgb(0,255,0); fill-rule: nonzero; opacity: 1;" transform=" matrix(1 0 0 1 0 0) " stroke-linecap="round" />
</g>
</svg>