<svg width="16" height="16" xmlns="http://www.w3.org/2000/svg" viewBox="0 0 229.034 229.034"><path d="M218.411 167.068l-70.305-70.301 9.398-35.073a7.504 7.504 0 00-1.94-7.245L103.311 2.197A7.499 7.499 0 0096.066.256L56.812 10.774a7.502 7.502 0 00-3.362 12.548l39.259 39.262-6.364 23.756-23.751 6.363-39.263-39.26a7.498 7.498 0 00-7.245-1.94 7.498 7.498 0 00-5.303 5.303L.266 96.059a7.5 7.5 0 001.941 7.244l52.249 52.255a7.5 7.5 0 007.245 1.941l35.076-9.4 70.302 70.306c6.854 6.854 15.968 10.628 25.662 10.629h.001c9.695 0 18.81-3.776 25.665-10.631 14.153-14.151 14.156-37.178.004-51.335zM207.8 207.795a21.15 21.15 0 01-15.058 6.239h-.002a21.153 21.153 0 01-15.056-6.236l-73.363-73.367a7.5 7.5 0 00-7.245-1.942L62 141.889 15.875 95.758l6.035-22.523 33.139 33.137a7.499 7.499 0 007.244 1.941l32.116-8.604a7.5 7.5 0 005.304-5.304l8.606-32.121a7.5 7.5 0 00-1.941-7.244L73.242 21.901l22.524-6.036 46.128 46.129-9.398 35.073a7.5 7.5 0 001.941 7.245l73.365 73.361c8.305 8.307 8.304 21.819-.002 30.122z" fill="#808080"/></svg>