<svg width="800" height="800" viewBox="0 0 512 512" xmlns="http://www.w3.org/2000/svg"><path d="M175.541 451.418c-34.837 0-67.605-13.568-92.245-38.208-50.859-50.86-50.859-133.632 0-184.491L257.269 54.746l27.158 27.178-173.974 173.952c-35.882 35.904-35.882 94.294 0 130.176 17.387 17.387 40.512 26.966 65.088 26.966 24.576 0 47.702-9.58 65.088-26.966l172.118-172.117c21.397-21.397 21.397-56.192 0-77.59-20.736-20.757-56.896-20.693-77.59-.02L166.603 304.75c-3.542 3.541-5.483 8.256-5.483 13.27 0 5.013 1.941 9.727 5.504 13.269 7.083 7.146 19.477 7.104 26.56 0l141.504-141.483 27.157 27.179-141.482 141.482c-22.336 22.294-58.603 22.25-80.896 0-22.294-22.293-22.294-58.602 0-80.874L308.02 109.188c17.579-17.6 41.024-27.306 65.942-27.306 24.896 0 48.32 9.685 65.962 27.306 36.352 36.374 36.352 95.552 0 131.926L267.787 413.21c-24.64 24.64-57.387 38.208-92.246 38.208" fill="#fff"/></svg>