<svg fill="#fff" height="800" width="800" xmlns="http://www.w3.org/2000/svg" viewBox="0 0 24 24"><path d="M8 24c-1.9 0-3.6-.7-4.9-2C1.7 20.7 1 18.9 1 17.1s.7-3.6 2-4.9l2.5-2.5 1.4 1.4-2.5 2.5c-.9.9-1.4 2.2-1.4 3.5s.5 2.6 1.4 3.5c1 1 2.2 1.5 3.5 1.5s2.6-.5 3.5-1.4l2.6-2.6 1.4 1.4-2.5 2.5c-1.3 1.3-3.1 2-4.9 2zm11.2-3.2L3.3 4.9l1.4-1.4L8.2 7l5.5-5.5C14.5.6 15.8 0 17.1 0c1.3 0 2.6.5 3.5 1.5 1 1 1.5 2.2 1.5 3.6 0 1.3-.5 2.6-1.5 3.5L15.1 14l1.4 1.4 4.4-4.3 1.4 1.4-4.3 4.3 2.6 2.6-1.4 1.4zm-6.8-9.6l1.4 1.4 5.5-5.5c.6-.6.9-1.3.9-2.1s-.3-1.5-.9-2.1c-.7-.6-1.5-.9-2.2-.9-.8 0-1.5.3-2.1.9L9.6 8.4 11 9.8l4.3-4.3 1.4 1.4-4.3 4.3zM8 20c-.8 0-1.5-.3-2.1-.9-.6-.6-.9-1.3-.9-2.1s.3-1.5.9-2.1l2.5-2.5 1.4 1.4-2.5 2.5c-.2.2-.3.4-.3.7 0 .3.1.5.3.7.4.4 1 .4 1.4 0l2.5-2.5 1.4 1.4-2.5 2.5c-.6.6-1.4.9-2.1.9z"/></svg>