<svg xmlns="http://www.w3.org/2000/svg" viewBox="0 0 512 512"><style>:root{color:#fff}@media (prefers-color-scheme:light){:root{color:#000}}</style><g stroke="currentColor" fill="currentColor"><path d="M480.003 128H48c0-22.056-17.944-40-40-40a8 8 0 000 16c13.234 0 24 10.766 24 24v288a8 8 0 0016 0v-8h16.01C77.238 408 88 397.238 88 384.01V384h392.003C497.646 384 512 369.646 512 352.003V159.997C512 142.354 497.646 128 480.003 128zM496 352.003c0 8.821-7.176 15.997-15.997 15.997H80a8 8 0 00-8 8v8.01c0 4.406-3.584 7.99-7.99 7.99H48V144h432.003c8.821 0 15.997 7.176 15.997 15.997v192.006z"/><path d="M240 192c-22.922 0-43.057 12.12-54.363 30.28a8.026 8.026 0 00-1.737 2.954A63.601 63.601 0 00176 256a63.583 63.583 0 008.264 31.399c.187.398.407.778.656 1.14C196.078 307.354 216.586 320 240 320c35.29 0 64-28.71 64-64a63.583 63.583 0 00-8.264-31.399 8.057 8.057 0 00-.656-1.14C283.922 204.646 263.414 192 240 192zm-48 64c0-4.395.605-8.648 1.717-12.695 3.596 3.178 8.453 6.73 15.035 10.53 6.376 3.681 11.742 6.078 16.208 7.612-2.622 2.061-5.987 4.385-10.208 6.821-8.449 4.878-14.816 7.039-18.36 7.752A47.681 47.681 0 01192 256zm96 0c0 4.103-.52 8.087-1.493 11.891-3.617-3.227-8.542-6.848-15.259-10.726-5.96-3.441-11.036-5.758-15.321-7.298 2.483-1.885 5.564-3.966 9.321-6.135 8.447-4.876 14.816-7.039 18.36-7.752A47.681 47.681 0 01288 256zm-14.052-33.901c-4.562 1.524-10.087 3.96-16.699 7.777-6.252 3.61-10.952 6.997-14.49 10.051-.449-3.245-.759-7.21-.759-11.927 0-9.763 1.314-16.361 2.469-19.785 11.465 1.064 21.775 6.169 29.479 13.884zm-46.329-12.472C226.655 214.344 226 220.354 226 228c0 7.056.557 12.721 1.401 17.26-3.022-1.232-6.59-2.938-10.65-5.282-8.302-4.793-13.33-9.159-15.769-11.883 6.394-8.915 15.757-15.56 26.637-18.468zm-21.57 80.271c4.564-1.524 10.086-3.954 16.702-7.774 6.252-3.61 10.952-6.997 14.49-10.051.449 3.245.759 7.21.759 11.927 0 9.763-1.314 16.361-2.469 19.785-11.466-1.064-21.778-6.17-29.482-13.887zm46.332 12.475C253.345 297.656 254 291.646 254 284c0-7.633-.653-13.635-1.614-18.347 3.066 1.237 6.708 2.97 10.863 5.368 8.764 5.06 13.892 9.652 16.163 12.33-6.4 9.195-15.926 16.054-27.031 19.022z"/><path d="M440 168a8 8 0 000 16c8.822 0 16 7.178 16 16v112c0 8.822-7.178 16-16 16H240c-39.701 0-72-32.299-72-72s32.299-72 72-72h168a8 8 0 000-16H240c-48.523 0-88 39.477-88 88s39.477 88 88 88h200c17.645 0 32-14.355 32-32V200c0-17.645-14.355-32-32-32zm-328 64H88c-8.822 0-16 7.178-16 16v16c0 8.822 7.178 16 16 16h24c8.822 0 16-7.178 16-16v-16c0-8.822-7.178-16-16-16zm-24 32v-16h24l.001 16H88zm24-88H88c-8.822 0-16 7.178-16 16v16c0 8.822 7.178 16 16 16h24c8.822 0 16-7.178 16-16v-16c0-8.822-7.178-16-16-16zm-24 32v-16h24l.001 16H88zm24 80H88c-8.822 0-16 7.178-16 16v16c0 8.822 7.178 16 16 16h24c8.822 0 16-7.178 16-16v-16c0-8.822-7.178-16-16-16zm-24 32v-16h24l.001 16H88z"/><path d="M432 200h-24a8 8 0 000 16h24a8 8 0 000-16zm0 96h-24a8 8 0 000 16h24a8 8 0 000-16zm0-72h-24a8 8 0 000 16h24a8 8 0 000-16zm0 24h-24a8 8 0 000 16h24a8 8 0 000-16zm0 24h-24a8 8 0 000 16h24a8 8 0 000-16z"/></g></svg>