<svg xmlns="http://www.w3.org/2000/svg" viewBox="0 0 24 24"><title>disk</title><g id="disk"><path style="fill: rgb(255,255,255); fill-rule: nonzero; opacity: 1;" d="M12,0A12,12,0,1,0,24,12,12,12,0,0,0,12,0Zm0,22A10,10,0,1,1,22,12,10,10,0,0,1,12,22Z"/><path style="fill: rgb(255,255,255); fill-rule: nonzero; opacity: 1;" d="M12,8a4,4,0,1,0,4,4A4,4,0,0,0,12,8Zm0,6a2,2,0,1,1,1.73-3A2,2,0,0,1,12,14Z"/><path style="fill: rgb(255,255,255); fill-rule: nonzero; opacity: 1;" d="M12,18a6,6,0,0,1-6-6,1,1,0,0,0-2,0,8,8,0,0,0,8,8A1,1,0,0,0,12,18Z"/><path style="fill: rgb(255,255,255); fill-rule: nonzero; opacity: 1;" d="M12,4a1,1,0,0,0,0,2,6,6,0,0,1,6,6,1,1,0,0,0,1,1C21.57,13,19.27,4,12,4Z"/></g></svg>