<svg width="16" height="16" xmlns="http://www.w3.org/2000/svg" viewBox="0 0 24 24"><g fill="#fff"><path d="M23 9a1 1 0 001-1V5a1 1 0 00-1-1H1a1 1 0 00-1 1v3a1 1 0 001 1 1 1 0 010 2 1 1 0 00-1 1v7a1 1 0 001 1h13a1 1 0 001-1v-3h2v3a1 1 0 001 1h5a1 1 0 001-1v-7a1 1 0 00-1-1 1 1 0 010-2zM2 16h3v2H2zm7 0v2H7v-2zm4 2h-2v-2h2zm6 0v-2h3v2zm3-10.83a3 3 0 000 5.66V14H2v-1.17a3 3 0 000-5.66V6h20z"/><path d="M9 11V9a1 1 0 00-2 0v2a1 1 0 002 0zM13 11V9a1 1 0 00-2 0v2a1 1 0 002 0zM17 11V9a1 1 0 00-2 0v2a1 1 0 002 0z"/></g></svg>