<svg xmlns="http://www.w3.org/2000/svg" width="24" height="21.986" viewBox="0 0 24 21.986">
  <g>
    <path style="fill: rgb(255,255,255); fill-rule: nonzero; opacity: 1;" d="M19.841,3.24A10.988,10.988,0,0,0,8.54.573l1.266,3.8a7.033,7.033,0,0,1,8.809,9.158L17,11.891v7.092h7l-2.407-2.439A11.049,11.049,0,0,0,19.841,3.24Z"/>
    <path style="fill: rgb(255,255,255); fill-rule: nonzero; opacity: 1;" d="M1,10.942A11.05,11.05,0,0,0,12.013,21.986a11.114,11.114,0,0,0,3.521-.575l-1.266-3.8A7.035,7.035,0,0,1,5.48,8.391L7,9.891V6.034c.021-.02.038-.044.06-.065L7,5.909V2.982H0L2.482,5.431A10.951,10.951,0,0,0,1,10.942Z"/>
  </g>
</svg>
